<?xml version="1.0" encoding="UTF-8" standalone="no"?>
<svg
   xmlns:dc="http://purl.org/dc/elements/1.1/"
   xmlns:cc="http://creativecommons.org/ns#"
   xmlns:rdf="http://www.w3.org/1999/02/22-rdf-syntax-ns#"
   xmlns:svg="http://www.w3.org/2000/svg"
   xmlns="http://www.w3.org/2000/svg"
   xmlns:xlink="http://www.w3.org/1999/xlink"
   style="enable-background:new"
   xml:space="preserve"
   id="svg2"
   height="340"
   width="500"
   version="1.0"><metadata
     id="metadata15"><rdf:RDF><cc:Work
         rdf:about=""><dc:format>image/svg+xml</dc:format><dc:type
           rdf:resource="http://purl.org/dc/dcmitype/StillImage" /><dc:title></dc:title></cc:Work></rdf:RDF></metadata><defs
     id="defs6"><clipPath
       id="SVGID_2_"><use
         height="100%"
         width="100%"
         y="0"
         x="0"
         style="overflow:visible"
         id="use5"
         overflow="visible"
         xlink:href="#SVGID_1_" /></clipPath><clipPath
       id="clipPath4564"><use
         height="100%"
         width="100%"
         y="0"
         x="0"
         style="overflow:visible"
         id="use4562"
         overflow="visible"
         xlink:href="#SVGID_1_" /></clipPath><clipPath
       id="clipPath4568"><use
         height="100%"
         width="100%"
         y="0"
         x="0"
         style="overflow:visible"
         id="use4566"
         overflow="visible"
         xlink:href="#SVGID_1_" /></clipPath><clipPath
       id="clipPath4572"><use
         height="100%"
         width="100%"
         y="0"
         x="0"
         style="overflow:visible"
         id="use4570"
         overflow="visible"
         xlink:href="#SVGID_1_" /></clipPath><clipPath
       id="clipPath4576"><use
         height="100%"
         width="100%"
         y="0"
         x="0"
         style="overflow:visible"
         id="use4574"
         overflow="visible"
         xlink:href="#SVGID_1_" /></clipPath><clipPath
       id="clipPath4580"><use
         height="100%"
         width="100%"
         y="0"
         x="0"
         style="overflow:visible"
         id="use4578"
         overflow="visible"
         xlink:href="#SVGID_1_" /></clipPath><clipPath
       id="clipPath4584"><use
         height="100%"
         width="100%"
         y="0"
         x="0"
         style="overflow:visible"
         id="use4582"
         overflow="visible"
         xlink:href="#SVGID_1_" /></clipPath><clipPath
       id="clipPath4588"><use
         height="100%"
         width="100%"
         y="0"
         x="0"
         style="overflow:visible"
         id="use4586"
         overflow="visible"
         xlink:href="#SVGID_1_" /></clipPath><clipPath
       id="clipPath4592"><use
         height="100%"
         width="100%"
         y="0"
         x="0"
         style="overflow:visible"
         id="use4590"
         overflow="visible"
         xlink:href="#SVGID_1_" /></clipPath><clipPath
       id="clipPath4596"><use
         height="100%"
         width="100%"
         y="0"
         x="0"
         style="overflow:visible"
         id="use4594"
         overflow="visible"
         xlink:href="#SVGID_1_" /></clipPath><clipPath
       id="clipPath4600"><use
         height="100%"
         width="100%"
         y="0"
         x="0"
         style="overflow:visible"
         id="use4598"
         overflow="visible"
         xlink:href="#SVGID_1_" /></clipPath><clipPath
       id="clipPath4604"><use
         height="100%"
         width="100%"
         y="0"
         x="0"
         style="overflow:visible"
         id="use4602"
         overflow="visible"
         xlink:href="#SVGID_1_" /></clipPath><clipPath
       id="clipPath4608"><use
         height="100%"
         width="100%"
         y="0"
         x="0"
         style="overflow:visible"
         id="use4606"
         overflow="visible"
         xlink:href="#SVGID_1_" /></clipPath><clipPath
       id="clipPath4612"><use
         height="100%"
         width="100%"
         y="0"
         x="0"
         style="overflow:visible"
         id="use4610"
         overflow="visible"
         xlink:href="#SVGID_1_" /></clipPath><clipPath
       id="clipPath4616"><use
         height="100%"
         width="100%"
         y="0"
         x="0"
         style="overflow:visible"
         id="use4614"
         overflow="visible"
         xlink:href="#SVGID_1_" /></clipPath><clipPath
       id="clipPath4620"><use
         height="100%"
         width="100%"
         y="0"
         x="0"
         style="overflow:visible"
         id="use4618"
         overflow="visible"
         xlink:href="#SVGID_1_" /></clipPath><clipPath
       id="clipPath4624"><use
         height="100%"
         width="100%"
         y="0"
         x="0"
         style="overflow:visible"
         id="use4622"
         overflow="visible"
         xlink:href="#SVGID_1_" /></clipPath><clipPath
       id="clipPath4628"><use
         height="100%"
         width="100%"
         y="0"
         x="0"
         style="overflow:visible"
         id="use4626"
         overflow="visible"
         xlink:href="#SVGID_1_" /></clipPath><clipPath
       id="clipPath4632"><use
         height="100%"
         width="100%"
         y="0"
         x="0"
         style="overflow:visible"
         id="use4630"
         overflow="visible"
         xlink:href="#SVGID_1_" /></clipPath><clipPath
       id="clipPath4636"><use
         height="100%"
         width="100%"
         y="0"
         x="0"
         style="overflow:visible"
         id="use4634"
         overflow="visible"
         xlink:href="#SVGID_1_" /></clipPath><clipPath
       id="clipPath4640"><use
         height="100%"
         width="100%"
         y="0"
         x="0"
         style="overflow:visible"
         id="use4638"
         overflow="visible"
         xlink:href="#SVGID_1_" /></clipPath><clipPath
       id="clipPath4644"><use
         height="100%"
         width="100%"
         y="0"
         x="0"
         style="overflow:visible"
         id="use4642"
         overflow="visible"
         xlink:href="#SVGID_1_" /></clipPath><clipPath
       id="clipPath4648"><use
         height="100%"
         width="100%"
         y="0"
         x="0"
         style="overflow:visible"
         id="use4646"
         overflow="visible"
         xlink:href="#SVGID_1_" /></clipPath><clipPath
       id="clipPath4652"><use
         height="100%"
         width="100%"
         y="0"
         x="0"
         style="overflow:visible"
         id="use4650"
         overflow="visible"
         xlink:href="#SVGID_1_" /></clipPath><clipPath
       id="clipPath4656"><use
         height="100%"
         width="100%"
         y="0"
         x="0"
         style="overflow:visible"
         id="use4654"
         overflow="visible"
         xlink:href="#SVGID_1_" /></clipPath><clipPath
       id="clipPath4660"><use
         height="100%"
         width="100%"
         y="0"
         x="0"
         style="overflow:visible"
         id="use4658"
         overflow="visible"
         xlink:href="#SVGID_1_" /></clipPath><clipPath
       id="clipPath4664"><use
         height="100%"
         width="100%"
         y="0"
         x="0"
         style="overflow:visible"
         id="use4662"
         overflow="visible"
         xlink:href="#SVGID_1_" /></clipPath><clipPath
       id="clipPath4668"><use
         height="100%"
         width="100%"
         y="0"
         x="0"
         style="overflow:visible"
         id="use4666"
         overflow="visible"
         xlink:href="#SVGID_1_" /></clipPath><clipPath
       id="clipPath4672"><use
         height="100%"
         width="100%"
         y="0"
         x="0"
         style="overflow:visible"
         id="use4670"
         overflow="visible"
         xlink:href="#SVGID_1_" /></clipPath><clipPath
       id="clipPath4676"><use
         height="100%"
         width="100%"
         y="0"
         x="0"
         style="overflow:visible"
         id="use4674"
         overflow="visible"
         xlink:href="#SVGID_1_" /></clipPath><rect
       y="0"
       x="0"
       height="841.90002"
       width="595.29999"
       id="SVGID_1_" /><clipPath
       id="SVGID_2_-9"><use
         height="100%"
         width="100%"
         y="0"
         x="0"
         style="overflow:visible"
         id="use5-2"
         overflow="visible"
         xlink:href="#SVGID_1_" /></clipPath></defs><g
     id="g68"
     transform="matrix(3.2653591,0,0,3.1792847,1510.3956,-1135.5504)"><defs
       id="defs3"><rect
         y="0"
         x="0"
         height="841.90002"
         width="595.29999"
         id="rect4655" /></defs><clipPath
       id="clipPath4682"><use
         height="100%"
         width="100%"
         y="0"
         x="0"
         style="overflow:visible"
         id="use4680"
         overflow="visible"
         xlink:href="#SVGID_1_" /></clipPath><path
       transform="translate(-597.53296,-156.34671)"
       style="fill:#e31b1d;enable-background:new"
       id="path66-7"
       d="m 276.9,525.8 c 0,0 -4.7,-1.8 -11.1,-1.8 -11.6,0 -17.6,6.3 -20.6,10.4 -2.8,3.8 -4.6,7.9 -5.9,13.4 -1.3,5.3 -1.5,11.9 -1.7,17.2 -0.6,13.3 0.7,36.6 -5,36.6 -2.9,0 -4.9,-4.5 -5.6,-6.3 -0.3,-0.7 -2.5,-7.2 -5.3,-19.5 -1.7,-7.7 -5.8,-26.1 -7,-30.2 -0.5,-1.9 -1.9,-7 -4.6,-11.4 -3.5,-5.7 -9.5,-8.7 -14.8,-8.7 -5.1,0 -9.8,3.5 -11.5,5.2 -5.2,5.2 -7,12.7 -7.5,15.7 -0.6,3.2 -1.3,10 -1.3,10 -1,8.1 -2.8,22 -3.2,24.9 -2.1,15.1 -6.3,17.5 -10.5,18.8 -1,0.3 -2.8,0.5 -3.5,0.5 -2.7,0 -4.8,-0.8 -4.8,-0.8 -0.3,-0.1 -0.8,-0.3 -1.5,-0.3 -0.4,0 -0.7,0.1 -1,0.2 -0.9,0.4 -1.3,0.9 -1.4,1.1 -1.7,2.6 -1.8,5.4 -1.8,6.1 0,1.9 1.2,2.5 1.5,2.7 0.1,0 2.5,1.1 6,1.6 10.5,1.6 17.1,-4.6 18.9,-6.3 1.7,-1.7 4.6,-5 6.5,-11.6 1.2,-4.2 1.9,-8.3 2.5,-12.9 0.4,-3.5 3.1,-26.4 3.6,-29.6 0.6,-3.4 1.4,-6.9 3.1,-10.1 1.2,-2.3 3.2,-4.7 6.2,-4.7 1.1,0 2.2,0.4 3.1,1 2.9,2.1 4.6,7.1 5.1,9.3 0.8,2.9 6.2,25.9 7.1,29.8 5.8,26.9 9.7,31.6 15.1,34.3 3.1,1.5 9.2,3.3 14.7,-1.1 6.2,-4.9 6.4,-14.4 6.8,-20.2 0.4,-6 0.4,-10.7 0.5,-12.9 0.3,-21.3 0.5,-27.9 6.1,-36.1 3.1,-4.4 9.3,-7.6 19.7,-4.3 0.2,0.1 0.8,0.2 1.3,0.2 2,0 2.9,-2 3.4,-4.1 0.4,-1.2 1.4,-5.1 -1.6,-6.1"
       clip-path="url(#SVGID_2_-9)" /></g></svg>